<svg width="48" height="48" fill="none" xmlns="http://www.w3.org/2000/svg"><path d="M13.5 44h29c.275 0 .5-.225.5-.5V14h-8.5c-.827 0-1.5-.673-1.5-1.5V4H13.5c-.275 0-.5.225-.5.5v39c0 .275.225.5.5.5z" fill="#fff"/><path d="M42.293 13 34 4.707V12.5c0 .275.225.5.5.5h7.793z" fill="#fff"/><path opacity=".67" fill-rule="evenodd" clip-rule="evenodd" d="m43.56 12.854-9.414-9.415A1.51 1.51 0 0 0 33.086 3H13.5c-.827 0-1.5.673-1.5 1.5v39c0 .827.673 1.5 1.5 1.5h29c.827 0 1.5-.673 1.5-1.5V13.914c0-.4-.156-.777-.44-1.06zM34 4.707 42.293 13H34.5a.501.501 0 0 1-.5-.5V4.707zM13.5 44h29c.275 0 .5-.225.5-.5V14h-8.5c-.827 0-1.5-.673-1.5-1.5V4H13.5c-.275 0-.5.225-.5.5v39c0 .276.224.5.5.5z" fill="#605E5C"/><path fill-rule="evenodd" clip-rule="evenodd" d="M35.999 31.03h-1.58v-1.54h-.038c-.687 1.187-1.699 1.78-3.034 1.78-.95 0-1.711-.257-2.282-.774-.572-.517-.858-1.212-.858-2.085 0-1.837 1.085-2.91 3.255-3.217l2.957-.414c0-1.67-.678-2.504-2.032-2.504-1.188 0-2.26.4-3.217 1.203V21.86c.289-.218.784-.428 1.483-.63.7-.202 1.323-.304 1.869-.304 2.317 0 3.477 1.23 3.477 3.69v6.413zm-1.58-4.99-2.388.338c-.816.116-1.387.31-1.715.583-.327.273-.49.715-.49 1.324 0 .495.175.89.528 1.19.354.299.806.448 1.359.448.783 0 1.43-.276 1.94-.83.51-.551.767-1.241.767-2.07v-.982h-.001zM38.467 34l1.532-4.73h-1.532L37.341 34h1.126z" fill="#33C481"/><path d="M6 37h18a2 2 0 0 0 2-2V17a2 2 0 0 0-2-2H6a2 2 0 0 0-2 2v18a2 2 0 0 0 2 2z" fill="#107C41"/><path d="m9.519 32 3.85-6.017L9.843 20h2.839l1.926 3.825c.177.362.298.633.365.811h.025c.127-.29.26-.572.398-.845L17.455 20h2.605l-3.62 5.95L20.15 32H17.38l-2.225-4.2a3.514 3.514 0 0 1-.265-.561h-.033a2.61 2.61 0 0 1-.257.543L12.308 32h-2.79z" fill="#F9F7F7"/></svg>